<svg xmlns="http://www.w3.org/2000/svg" xmlns:xlink="http://www.w3.org/1999/xlink" width="40" height="40" viewBox="0 0 40 40">
  <defs>
    <clipPath id="clip-blazor">
      <rect width="40" height="40"/>
    </clipPath>
  </defs>
  <g id="blazor" clip-path="url(#clip-blazor)">
    <path id="blazor-2" data-name="blazor" d="M36.6,10.553A20.869,20.869,0,0,1,16.139,28.135a15.159,15.159,0,0,1-2.991-.182,9.168,9.168,0,0,1-7.623-8.642,8.9,8.9,0,0,1,17.8-.126c.037,1.476-.6,2.77-1.915,2.807-1.4,0-2.062-1-2.062-2.351V15.891a2.3,2.3,0,0,0-2.279-2.3H13.925a5.473,5.473,0,1,0,4.042,9.12l.11-.164.11.182a3.871,3.871,0,0,0,3.3,1.572A4.363,4.363,0,0,0,25.53,19.74a11.871,11.871,0,0,0-.326-2.9A11.106,11.106,0,0,0,3.245,19.247,11.246,11.246,0,0,0,14.206,30.354a17.363,17.363,0,0,0,1.752.054,23.7,23.7,0,0,0,12.712-3.793c.054-.038.108.037.072.092a18.658,18.658,0,0,1-14.535,5.945A13.117,13.117,0,0,1,.856,19.192,13.577,13.577,0,0,1,6.309,8.32a13.294,13.294,0,0,1,7.844-2.589h4.22A11.871,11.871,0,0,0,27.13,1.864a.164.164,0,0,1,.089-.051.167.167,0,0,1,.179.078.169.169,0,0,1,.023.1A11.905,11.905,0,0,1,25.58,7.316a.164.164,0,0,0,.182.238A12.758,12.758,0,0,0,34.632.24a.234.234,0,0,1,.082-.079.224.224,0,0,1,.22,0,.229.229,0,0,1,.082.079A16.172,16.172,0,0,1,36.6,10.553ZM14.195,15.844a3.283,3.283,0,1,0,3.282,3.282V16.062a.237.237,0,0,0-.225-.225Z" transform="translate(1.148 3.599)" fill="#592b8d"/>
  </g>
</svg>
