<svg xmlns="http://www.w3.org/2000/svg" viewBox="0 0 40 40">
 <g>
  <path d="m20,40a19.879,19.879 0 0 1 -7.785,-1.57202a19.935,19.935 0 0 1 -6.35699,-4.28589a19.934,19.934 0 0 1 -4.28601,-6.35718a19.876,19.876 0 0 1 -1.57199,-7.78491a19.876,19.876 0 0 1 1.57199,-7.78491a19.934,19.934 0 0 1 4.28601,-6.35718a19.935,19.935 0 0 1 6.35699,-4.28589a19.879,19.879 0 0 1 7.785,-1.57202a19.879,19.879 0 0 1 7.785,1.57202a19.934,19.934 0 0 1 6.35699,4.28589a19.935,19.935 0 0 1 4.28601,6.35718a19.876,19.876 0 0 1 1.57199,7.78491a19.876,19.876 0 0 1 -1.57199,7.78491a19.934,19.934 0 0 1 -4.28601,6.35718a19.935,19.935 0 0 1 -6.35699,4.28589a19.879,19.879 0 0 1 -7.785,1.57202zm8.76501,-29.33105l0,1.552a2.163,2.163 0 0 1 1.19998,0.56616a2.3,2.3 0 0 1 0.34601,1.47485l0,2.26514a3.977,3.977 0 0 0 0.483,2.07495a4.113,4.113 0 0 0 1.763,1.42188a4.318,4.318 0 0 0 -1.70901,1.16602a3.27,3.27 0 0 0 -0.53699,2.05518l0,2.47095a2.163,2.163 0 0 1 -0.517,1.552a2.453,2.453 0 0 1 -1.02499,0.50781l0,1.55322l0.69299,-0.01807a4.057,4.057 0 0 0 2.47101,-0.85596a2.782,2.782 0 0 0 1.02499,-2.30005l0,-3.05591a2.4,2.4 0 0 1 0.771,-1.91406a3.313,3.313 0 0 1 1.26001,-0.60596l0,-1.18213a3.652,3.652 0 0 1 -1.40002,-0.7229a2.869,2.869 0 0 1 -0.634,-2.05005l0,-2.61694a4.123,4.123 0 0 0 -0.254,-1.30005a2.658,2.658 0 0 0 -0.90799,-1.24902a3.538,3.538 0 0 0 -1.52399,-0.67407a8.435,8.435 0 0 0 -1.5,-0.11694l-0.004,0.00195zm-17.52902,0a8.506,8.506 0 0 0 -1.51401,0.11694a3.465,3.465 0 0 0 -1.51398,0.67407a3,3 0 0 0 -1,1.5a3.61,3.61 0 0 0 -0.16602,1.04492l0,2.61719a2.768,2.768 0 0 1 -0.69299,2.05981a3.556,3.556 0 0 1 -1.33801,0.71313l0,1.18188a3.244,3.244 0 0 1 1.289,0.63501a2.394,2.394 0 0 1 0.742,1.88501l0,3.05615a2.746,2.746 0 0 0 1.04901,2.31982a4.173,4.173 0 0 0 2.44598,0.83521l0.694,0.01782l0,-1.55298a2.551,2.551 0 0 1 -1.02499,-0.5a2.031,2.031 0 0 1 -0.52701,-1.56201l0,-2.47095a3.789,3.789 0 0 0 -0.474,-1.9729a3.681,3.681 0 0 0 -1.77197,-1.24805a3.773,3.773 0 0 0 1.95297,-1.76001a4.283,4.283 0 0 0 0.293,-1.73804l0,-2.26489a2.2,2.2 0 0 1 0.44901,-1.57202a2.287,2.287 0 0 1 1.10001,-0.46899l0,-1.552l0.008,0.00586zm13.418,8.021l0,2.62012l2.69,0l0,-2.62012l-2.69,0zm-5.99399,0l0,2.62012l2.689,0l0,-2.62012l-2.689,0zm-6,0l0,2.62012l2.689,0l0,-2.62012l-2.689,0z" id="Subtraction_2"/>
 </g>
</svg>