<?xml version="1.0" encoding="UTF-8"?>
<svg xmlns="http://www.w3.org/2000/svg" viewBox="0 0 40 40">
  <g id="web" transform="translate(-0.035)">
    <path id="Path_1" data-name="Path 1" d="M458,453l14.777,4.528-4.279,2.488,6.717,6.717-3.483,3.483-6.717-6.717-2.488,4.229Z" transform="translate(-435.179 -430.462)"/>
    <path id="Path_2" data-name="Path 2" d="M19.338,0A19.3,19.3,0,0,1,38.592,19.255a19.789,19.789,0,0,1-1.045,6.319l-2.09-.647a17.371,17.371,0,0,0,.9-4.577H30.532a20.337,20.337,0,0,1-.348,2.985l-2.09-.647c.1-.8.2-1.542.249-2.338H20.383v5.174c.7.05,1.343.1,1.94.2l.746,2.388a15.181,15.181,0,0,0-2.687-.4v8.01a30.676,30.676,0,0,0,3.732-4.279l.746,2.587c-.5.647-1.045,1.244-1.592,1.841a13.149,13.149,0,0,0,1.99-.6l.647,2.04a18.792,18.792,0,0,1-20.2-4.428C-6.434,20.8,2.223,0,19.338,0Zm3.931,2.637a28.725,28.725,0,0,1,4.577,6.368A15.507,15.507,0,0,0,30.93,6.717,17.108,17.108,0,0,0,23.268,2.637Zm-2.886.2v8.408a15.493,15.493,0,0,0,5.523-1.294A29.4,29.4,0,0,0,20.383,2.836ZM30.532,18.16h5.821a16.859,16.859,0,0,0-3.931-9.851,16.626,16.626,0,0,1-3.582,2.637A21.226,21.226,0,0,1,30.532,18.16Zm-3.682-6.219a18.636,18.636,0,0,1-6.468,1.493V18.16h7.961A18.071,18.071,0,0,0,26.851,11.941ZM15.358,35.872a31.187,31.187,0,0,1-4.428-6.02,18.41,18.41,0,0,0-2.985,2.189A17.071,17.071,0,0,0,15.358,35.872ZM9.984,27.912a20.9,20.9,0,0,1-1.891-7.563H2.272a16.893,16.893,0,0,0,4.13,10.1A23.2,23.2,0,0,1,9.984,27.912ZM8.094,18.16a20.142,20.142,0,0,1,1.741-7.214A15.77,15.77,0,0,1,6.2,8.309,16.989,16.989,0,0,0,2.272,18.16ZM10.78,9.005a29.684,29.684,0,0,1,4.577-6.368A17.609,17.609,0,0,0,7.7,6.717,15.507,15.507,0,0,0,10.78,9.005Zm7.463-6.169a28.854,28.854,0,0,0-5.523,7.115,15.748,15.748,0,0,0,5.523,1.294Zm-6.468,9.1a17.5,17.5,0,0,0-1.493,6.219h7.961V13.433A18.636,18.636,0,0,1,11.775,11.941Zm-1.493,8.408a18.754,18.754,0,0,0,1.642,6.617,20.214,20.214,0,0,1,6.319-1.443V20.349Zm2.637,8.558a28.739,28.739,0,0,0,5.324,6.816v-8.01A18.472,18.472,0,0,0,12.92,28.907Z"/>
  </g>
</svg>
