<svg xmlns="http://www.w3.org/2000/svg" viewBox="0 0 40 40">
  <path d="M15.148,40h-.042A24.243,24.243,0,0,1,5.32,32.754,24.042,24.042,0,0,1,1,24.053a28.748,28.748,0,0,1-.861-10.38,43.42,43.42,0,0,1,14.984-2.454,43.42,43.42,0,0,1,14.983,2.454,28.943,28.943,0,0,1-.861,10.38,24.042,24.042,0,0,1-4.316,8.7A24.243,24.243,0,0,1,15.148,40Zm-.031-23.769a3.734,3.734,0,0,0-1.425,7.184,4.866,4.866,0,0,0-3.462,4.679,4.234,4.234,0,0,0,.042.635h9.7a4.051,4.051,0,0,0,.042-.635,4.851,4.851,0,0,0-.98-2.94,4.9,4.9,0,0,0-2.493-1.739,3.733,3.733,0,0,0-1.424-7.184Zm-9.994-5.76v0c-.008-.154-.008-.313-.008-.467a9.992,9.992,0,1,1,19.984.011c0,.155,0,.3-.011.456-1.16-.248-2.426-.462-3.764-.633a6.22,6.22,0,0,0-12.436,0c-1.335.171-2.6.384-3.764.635Z"/>
</svg>
