<?xml version="1.0" encoding="UTF-8"?><svg xmlns="http://www.w3.org/2000/svg" xmlns:xlink="http://www.w3.org/1999/xlink" viewBox="0 0 50 50" version="1.1"><path d="M46.559 23.254L37.25 6.738C36.66 5.684 35.488 5 34.3 5H15.7c-1.188 0-2.36.684-2.95 1.738L3.441 23.254a3.667 3.667 0 0 0 0 3.492l9.309 16.516C13.34 44.316 14.512 45 15.7 45h18.6c1.188 0 2.36-.688 2.95-1.738l9.309-16.516c.59-1.062.59-2.43 0-3.492zM33.613 35h-3.05a.407.407 0 0 1-.352-.219L25.047 25.2c-.027-.05-.067-.05-.094 0l-5.18 9.582a.395.395 0 0 1-.332.219h-3.05c-.278 0-.489-.367-.344-.621L21.094 25l-5.047-9.398c-.125-.227.027-.551.265-.602h3.125c.133 0 .266.09.336.207l5.18 9.586c.027.05.067.05.094 0l5.16-9.586a.417.417 0 0 1 .355-.207h3.051c.266 0 .465.355.34.602L28.906 25l5.047 9.379c.145.254-.066.621-.34.621z" id="surface1"/><metadata><rdf:RDF xmlns:rdf="http://www.w3.org/1999/02/22-rdf-syntax-ns#" xmlns:rdfs="http://www.w3.org/2000/01/rdf-schema#" xmlns:dc="http://purl.org/dc/elements/1.1/"><rdf:Description about="https://iconscout.com/legal#licenses" dc:title="xamarin,filled" dc:description="xamarin,filled" dc:publisher="Iconscout" dc:date="2017-12-09" dc:format="image/svg+xml" dc:language="en"><dc:creator><rdf:Bag><rdf:li>Icons8</rdf:li></rdf:Bag></dc:creator></rdf:Description></rdf:RDF></metadata></svg>